<?xml version="1.0" encoding="UTF-8" standalone="no"?>
<svg width="100px" height="100px" viewBox="0 0 100 100" version="1.1" xmlns="http://www.w3.org/2000/svg" xmlns:xlink="http://www.w3.org/1999/xlink">
    <!-- Generator: Sketch 43.2 (39069) - http://www.bohemiancoding.com/sketch -->
    <title>not_found_icon</title>
    <desc>Created with Sketch.</desc>
    <defs>
        <polygon id="path-1" points="0.0101612903 84 84 84 84 0.00677419355 0.0101612903 0.00677419355"></polygon>
    </defs>
    <g id="Search" stroke="none" stroke-width="1" fill="none" fill-rule="evenodd">
        <g id="not_found_icon">
            <g id="biology" transform="translate(8.000000, 8.000000)">
                <g id="Group-4">
                    <mask id="mask-2" fill="white">
                        <use xlink:href="#path-1"></use>
                    </mask>
                    <g id="Clip-2"></g>
                    <path d="M32.516129,55.5483871 C19.815871,55.5483871 9.48387097,45.2163871 9.48387097,32.516129 C9.48387097,19.815871 19.815871,9.48387097 32.516129,9.48387097 C45.2163871,9.48387097 55.5483871,19.815871 55.5483871,32.516129 C55.5483871,45.2163871 45.2163871,55.5483871 32.516129,55.5483871 Z M32.516129,6.77419355 C18.3214839,6.77419355 6.77419355,18.3214839 6.77419355,32.516129 C6.77419355,46.7107742 18.3214839,58.2580645 32.516129,58.2580645 C46.7107742,58.2580645 58.2580645,46.7107742 58.2580645,32.516129 C58.2580645,18.3214839 46.7107742,6.77419355 32.516129,6.77419355 L32.516129,6.77419355 Z" id="Fill-1" fill="#0096D9" mask="url(#mask-2)"></path>
                    <path d="M75.9387097,81.2903226 C74.5093548,81.2903226 73.1653548,80.7334839 72.1546452,79.7227742 L56.1092903,63.6774194 L63.6774194,56.1092903 L79.7227742,72.1546452 C80.7334839,73.1653548 81.2903226,74.5093548 81.2903226,75.9387097 C81.2903226,78.8895484 78.8895484,81.2903226 75.9387097,81.2903226 Z M51.3958065,58.9639355 C54.3154839,56.8734194 56.8734194,54.3154839 58.9639355,51.3958065 L61.7616774,54.1935484 L54.1935484,61.7616774 L51.3958065,58.9639355 Z M2.70967742,32.516129 C2.70967742,16.0805806 16.0805806,2.70967742 32.516129,2.70967742 C48.9516774,2.70967742 62.3225806,16.0805806 62.3225806,32.516129 C62.3225806,48.9516774 48.9516774,62.3225806 32.516129,62.3225806 C16.0805806,62.3225806 2.70967742,48.9516774 2.70967742,32.516129 Z M81.6385161,70.2389032 L65.5931613,54.1935484 L68.6998065,51.0869032 L66.7840645,49.1711613 L63.6774194,52.2778065 L60.4813548,49.0817419 C63.3671613,44.226 65.0322581,38.5627742 65.0322581,32.516129 C65.0322581,14.5875484 50.4447097,0 32.516129,0 C14.5875484,0 0,14.5875484 0,32.516129 C0,50.4447097 14.5875484,65.0322581 32.516129,65.0322581 C38.5627742,65.0322581 44.226,63.3671613 49.0817419,60.4813548 L52.2778065,63.6774194 L49.1711613,66.7840645 L51.0869032,68.6998065 L54.1935484,65.5931613 L70.2389032,81.6385161 C71.7617419,83.1613548 73.785871,84 75.9387097,84 C80.3839355,84 84,80.3839355 84,75.9387097 C84,73.785871 83.1613548,71.7617419 81.6385161,70.2389032 L81.6385161,70.2389032 Z" id="Fill-3" fill="#0096D9" mask="url(#mask-2)"></path>
                </g>
                <polygon id="Fill-8" fill="#0096D9" points="19 30 26.3775968 30 26.3775968 27 19 27"></polygon>
                <polygon id="Fill-8-Copy" fill="#0096D9" points="20 43 23 43 23 40 20 40"></polygon>
                <polygon id="Fill-8-Copy-2" fill="#0096D9" points="42 43 45 43 45 40 42 40"></polygon>
                <polygon id="Fill-9" fill="#0096D9" points="37.9709633 30 45.3485601 30 45.3485601 27 37.9709633 27"></polygon>
                <polygon id="Fill-9" fill="#0096D9" points="22.3303972 40 43.0471996 40 43.0471996 37 22.3303972 37"></polygon>
            </g>
        </g>
    </g>
</svg>